<svg width="57" height="57" viewBox="0 0 57 57" fill="none" xmlns="http://www.w3.org/2000/svg">
<path d="M28.5 57C44.2378 57 57 44.2378 57 28.5C57 12.7622 44.2378 1.37585e-06 28.5 0V7.12354C32.727 7.12412 36.859 8.37807 40.3734 10.7268C43.8878 13.0756 46.6269 16.4137 48.2442 20.3191C49.8616 24.2245 50.2846 28.5218 49.4598 32.6676C48.635 36.8134 46.5994 40.6215 43.6105 43.6105C40.6215 46.5994 36.8134 48.635 32.6676 49.4598C28.5218 50.2846 24.2245 49.8616 20.3191 48.2442C16.4137 46.6269 13.0756 43.8878 10.7268 40.3734C8.37807 36.859 7.12412 32.727 7.12354 28.5L0 28.5C-1.37584e-06 44.2378 12.7622 57 28.5 57Z" fill="#73BBC5"/>
<path d="M28.5 0C12.7622 0 0 12.7622 0 28.5C-1.37584e-06 44.2378 12.7622 57 28.5 57V49.8765C24.273 49.8759 20.141 48.6219 16.6266 46.2732C13.1122 43.9244 10.3731 40.5863 8.75578 36.6809C7.13843 32.7755 6.71541 28.4782 7.54021 24.3324C8.36501 20.1866 10.4006 16.3785 13.3895 13.3896C16.3785 10.4006 20.1866 8.36501 24.3324 7.54022C28.4782 6.71542 32.7755 7.13844 36.6809 8.75579C40.5863 10.3731 43.9244 13.1122 46.2732 16.6266C48.6219 20.141 49.8759 24.273 49.8765 28.5L57 28.5C57 12.7622 44.2378 1.37585e-06 28.5 0Z" fill="#E2FBFF"/>
</svg>
